<?xml version="1.0" encoding="utf-8"?>
<svg viewBox="0 0 500 500" xmlns="http://www.w3.org/2000/svg">
  <defs/>
  <path class="cls-1" d="M 259.7 26.754 L 232.61 26.754 L 232.61 17.894 L 297.29 17.894 L 297.29 26.754 L 270.19 26.754 L 270.19 99.804 L 259.7 99.804 L 259.7 26.754 Z" style="fill: rgb(35, 31, 32);"/>
  <path class="cls-1" d="M 321.88 17.394 L 325.63 17.394 L 325.63 96.304 L 369.58 96.304 L 369.58 99.804 L 321.88 99.804 L 321.88 17.394 Z" style="fill: rgb(35, 31, 32);"/>
  <path class="cls-1" d="M 366.37 85.558 C 366.37 73.552 378.225 67.935 406.692 65.249 C 406.674 55.803 403.22 46.816 390.735 46.816 C 382.542 46.816 374.668 51.31 370.679 54.446 L 368.952 51.75 C 372.622 48.838 381.678 43.662 390.951 43.662 C 404.636 43.662 409.946 53.089 409.946 63.864 L 409.946 98.651 L 407.148 98.651 L 406.718 90.348 L 406.501 90.348 C 400.458 95.399 392.272 100 384.501 100 C 375.427 100.035 366.37 95.768 366.37 85.558 Z M 406.674 86.564 L 406.674 68.159 C 378.855 70.857 369.797 76.248 369.797 85.442 C 369.797 93.745 377.344 96.89 384.674 96.89 C 391.599 96.89 398.903 93.414 406.674 86.564 Z" style="fill: rgb(35, 31, 32);"/>
  <path class="cls-1" d="M 416.462 92.712 L 416.261 92.712 L 415.86 98.802 L 413.253 98.802 L 413.253 17.434 L 416.261 17.434 L 416.261 41.544 L 416.061 53.48 L 416.261 53.48 C 421.267 47.623 428.478 43.554 434.886 43.554 C 448.611 43.554 455.317 54.382 455.317 71.048 C 455.317 89.302 444.8 100.12 432.858 100.12 C 427.98 100.129 421.371 97.224 416.462 92.712 Z M 452.116 71.057 C 452.116 57.315 447.208 46.695 434.686 46.695 C 429.376 46.695 422.653 50.079 416.238 57.288 L 416.238 88.408 C 422.245 94.606 428.95 96.97 433.082 96.97 C 444.102 96.97 452.116 86.153 452.116 71.057 Z" style="fill: rgb(35, 31, 32);"/>
  <path class="cls-1" d="M 42.8 17.964 L 66.03 17.964 C 82.76 17.964 94.12 23.584 94.12 37.964 C 94.13 46.084 89.5 53.294 79.76 55.794 L 79.76 56.294 C 91.76 58.164 98.76 64.664 98.76 75.894 C 98.76 92.004 86.27 99.894 67.92 99.894 L 42.8 99.894 L 42.8 17.964 Z M 64.28 52.424 C 78.28 52.424 83.88 47.924 83.88 38.814 C 83.88 29.944 77.39 26.704 64.78 26.704 L 53.13 26.704 L 53.13 52.424 L 64.28 52.424 Z M 66.4 91.134 C 80.4 91.134 88.5 86.514 88.5 75.394 C 88.5 65.284 80.76 61.164 66.4 61.164 L 53.13 61.164 L 53.13 91.164 L 66.4 91.134 Z" style="fill: rgb(35, 31, 32);"/>
  <path class="cls-2" style="fill: rgb(255, 255, 255); stroke: rgb(35, 31, 32); stroke-miterlimit: 10;"/>
  <path class="cls-4" d="M 202 22.274 L 179.86 88.084 C 178.308 92.71 181.75 97.494 186.63 97.494 L 230.9 97.494 C 235.779 97.494 239.221 92.71 237.67 88.084 L 215.53 22.274 C 213.772 17.066 207.036 15.714 203.404 19.841 C 202.78 20.551 202.302 21.378 202 22.274 Z" style="fill: none; stroke: rgb(35, 31, 32); stroke-miterlimit: 10; stroke-width: 6px;"/>
  <rect class="cls-3" x="205.01" y="21.104" width="7.53" height="51.6" style="fill: none; stroke: rgb(35, 31, 32); stroke-miterlimit: 10;"/>
  <polygon class="cls-5" points="188.089 26.624 205.979 72.604 207.74 72.214 188.089 26.624" style="fill: rgb(35, 31, 32); stroke: rgb(35, 31, 32); stroke-miterlimit: 10;"/>
  <line class="cls-6" x1="185.04" y1="72.704" x2="232.49" y2="72.704" style="fill: none; stroke: rgb(35, 31, 32); stroke-miterlimit: 10; stroke-width: 2px;"/>
  <line class="cls-7" x1="207.72" y1="42.944" x2="212.41" y2="42.824" style="fill: none; stroke: rgb(35, 31, 32); stroke-miterlimit: 10; stroke-width: 0.75px;"/>
  <line class="cls-7" x1="208.05" y1="53.334" x2="212.74" y2="53.214" style="fill: none; stroke: rgb(35, 31, 32); stroke-miterlimit: 10; stroke-width: 0.75px;"/>
  <line class="cls-7" x1="207.38" y1="32.344" x2="212.08" y2="32.224" style="fill: none; stroke: rgb(35, 31, 32); stroke-miterlimit: 10; stroke-width: 0.75px;"/>
  <line class="cls-7" x1="207.64" y1="63.734" x2="212.33" y2="63.614" style="fill: none; stroke: rgb(35, 31, 32); stroke-miterlimit: 10; stroke-width: 0.75px;"/>
  <ellipse class="cls-7" cx="209.11" cy="85.324" rx="10.99" ry="9.96" style="fill: none; stroke: rgb(35, 31, 32); stroke-miterlimit: 10; stroke-width: 0.75px;"/>
  <ellipse class="cls-8" cx="209.16" cy="85.374" rx="8.73" ry="7.91" style="fill: rgb(88, 89, 91);"/>
  <path class="cls-1" d="M 216.24 85.364 C 216.24 85.474 204.61 83.464 204.57 83.564 C 204.53 83.664 214.67 89.744 214.57 89.834 C 214.47 89.924 206.64 81.034 206.57 81.084 C 206.5 81.134 211.2 92.084 211.09 92.084 C 210.98 92.084 209.28 80.344 209.13 80.344 C 208.98 80.344 207.32 92.084 207.22 92.084 C 207.12 92.084 211.84 81.154 211.75 81.084 C 211.66 81.014 203.75 89.904 203.75 89.824 C 203.75 89.744 213.83 83.664 213.75 83.564 C 213.67 83.464 202.13 85.474 202.13 85.364 C 202.13 85.254 213.76 87.274 213.8 87.174 C 213.84 87.074 203.7 80.984 203.8 80.904 C 203.9 80.824 211.73 89.704 211.8 89.644 C 211.87 89.584 207.17 78.644 207.28 78.644 C 207.39 78.644 209.1 90.374 209.22 90.374 C 209.34 90.374 211.06 78.614 211.16 78.644 C 211.26 78.674 206.54 89.574 206.63 89.644 C 206.72 89.714 214.63 80.834 214.63 80.914 C 214.63 80.994 204.55 87.064 204.63 87.164 C 204.71 87.264 216.24 85.254 216.24 85.364 Z" style="fill: rgb(35, 31, 32);"/>
  <path class="cls-9" d="M 216.24 85.364 C 216.24 85.474 204.61 83.464 204.57 83.564 C 204.53 83.664 214.67 89.744 214.57 89.834 C 214.47 89.924 206.64 81.034 206.57 81.084 C 206.5 81.134 211.2 92.084 211.09 92.084 C 210.98 92.084 209.28 80.344 209.13 80.344 C 208.98 80.344 207.32 92.084 207.22 92.084 C 207.12 92.084 211.84 81.154 211.75 81.084 C 211.66 81.014 203.75 89.904 203.75 89.824 C 203.75 89.744 213.83 83.664 213.75 83.564 C 213.67 83.464 202.13 85.474 202.13 85.364 C 202.13 85.254 213.76 87.274 213.8 87.174 C 213.84 87.074 203.7 80.984 203.8 80.904 C 203.9 80.824 211.73 89.704 211.8 89.644 C 211.87 89.584 207.17 78.644 207.28 78.644 C 207.39 78.644 209.1 90.374 209.22 90.374 C 209.34 90.374 211.06 78.614 211.16 78.644 C 211.26 78.674 206.54 89.574 206.63 89.644 C 206.72 89.714 214.63 80.834 214.63 80.914 C 214.63 80.994 204.55 87.064 204.63 87.164 C 204.71 87.264 216.24 85.254 216.24 85.364 Z" style="fill: none; stroke: rgb(35, 31, 32); stroke-miterlimit: 10; stroke-width: 0.5px;"/>
  <path class="cls-10" d="M 207.73 84.404 C 207.892 84.386 208.057 84.386 208.22 84.404 C 208.402 84.395 208.584 84.415 208.76 84.464 C 208.874 84.506 208.942 84.624 208.92 84.744 C 208.874 84.996 208.687 85.198 208.44 85.264 C 208.75 85.324 208.986 85.579 209.02 85.894 C 209.036 86.034 208.964 86.169 208.84 86.234 C 208.618 86.308 208.383 86.336 208.15 86.314 C 208.01 86.332 207.869 86.332 207.73 86.314 L 207.73 84.404 Z M 207.85 85.164 L 208.05 85.164 C 208.298 85.172 208.519 85.005 208.58 84.764 C 208.58 84.524 208.43 84.494 208.17 84.514 C 208.093 84.507 208.016 84.507 207.94 84.514 C 207.885 84.727 207.855 84.945 207.85 85.164 Z M 207.95 86.164 L 208.16 86.164 C 208.42 86.164 208.68 86.164 208.65 85.844 C 208.62 85.524 208.29 85.374 208.02 85.374 L 207.85 85.374 C 207.853 85.614 207.886 85.852 207.95 86.084 L 207.95 86.164 Z" style="fill: rgb(255, 255, 255);"/>
  <path class="cls-10" d="M 209.42 84.374 L 209.69 84.374 C 209.891 84.951 209.912 85.575 209.75 86.164 C 210.028 86.153 210.306 86.119 210.58 86.064 L 210.58 86.274 L 209.42 86.274 C 209.538 85.646 209.538 85.002 209.42 84.374 Z" style="fill: rgb(255, 255, 255);"/>
  <path class="cls-1" d="M 42.88 117.574 L 45.64 117.574 L 45.64 118.044 L 43.54 118.044 L 43.54 125.694 L 45.64 125.694 L 45.64 126.164 L 42.88 126.164 L 42.88 117.574 Z" style="fill: rgb(35, 31, 32);"/>
  <path class="cls-1" d="M 47.62 118.114 L 49.44 118.114 C 50.77 118.114 51.68 118.564 51.68 119.714 C 51.684 120.38 51.227 120.96 50.58 121.114 C 51.43 121.13 52.106 121.833 52.09 122.684 C 52.09 123.964 51.09 124.594 49.63 124.594 L 47.63 124.594 L 47.62 118.114 Z M 49.34 120.874 C 50.46 120.874 50.91 120.514 50.91 119.784 C 50.91 119.054 50.39 118.784 49.38 118.784 L 48.44 118.784 L 48.44 120.844 L 49.34 120.874 Z M 49.51 123.964 C 50.63 123.964 51.27 123.604 51.27 122.714 C 51.27 121.824 50.66 121.574 49.51 121.574 L 48.44 121.574 L 48.44 123.964 L 49.51 123.964 Z" style="fill: rgb(35, 31, 32);"/>
  <path class="cls-1" d="M 54.08 119.794 L 54.77 119.794 L 54.85 120.944 C 55.301 120.17 56.124 119.688 57.02 119.674 C 57.348 119.662 57.674 119.73 57.97 119.874 L 57.78 120.584 C 57.496 120.475 57.194 120.421 56.89 120.424 C 56.01 120.463 55.232 121.004 54.89 121.814 L 54.89 124.644 L 54.06 124.644 L 54.08 119.794 Z" style="fill: rgb(35, 31, 32);"/>
  <path class="cls-1" d="M 59.44 123.394 C 59.44 122.304 60.44 121.774 62.97 121.574 C 63.019 120.852 62.398 120.264 61.68 120.354 C 61.071 120.391 60.484 120.591 59.98 120.934 L 59.65 120.374 C 60.296 119.948 61.046 119.706 61.82 119.674 C 62.976 119.536 63.957 120.517 63.82 121.674 L 63.82 124.674 L 63.14 124.674 L 63.06 124.014 C 62.524 124.473 61.854 124.747 61.15 124.794 C 60.18 124.764 59.44 124.254 59.44 123.394 Z M 62.97 123.394 L 62.97 122.114 C 60.89 122.274 60.26 122.684 60.26 123.324 C 60.26 123.964 60.76 124.084 61.32 124.084 C 61.932 124.044 62.512 123.793 62.96 123.374 L 62.97 123.394 Z" style="fill: rgb(35, 31, 32);"/>
  <path class="cls-1" d="M 67.78 120.464 L 65.53 120.464 L 65.53 119.794 L 68.61 119.794 L 68.61 124.644 L 67.78 124.644 L 67.78 120.464 Z M 67.44 118.114 C 67.424 117.606 67.964 117.272 68.412 117.513 C 68.859 117.753 68.878 118.388 68.446 118.655 C 68.342 118.72 68.222 118.754 68.1 118.754 C 67.736 118.771 67.433 118.478 67.44 118.114 Z" style="fill: rgb(35, 31, 32);"/>
  <path class="cls-1" d="M 71.56 119.794 L 72.24 119.794 L 72.31 120.614 C 72.758 120.055 73.424 119.713 74.14 119.674 C 75.28 119.674 75.81 120.354 75.81 121.674 L 75.81 124.674 L 74.98 124.674 L 74.98 121.774 C 74.98 120.854 74.67 120.424 73.88 120.424 C 73.3 120.424 72.88 120.714 72.35 121.294 L 72.35 124.674 L 71.52 124.674 L 71.56 119.794 Z" style="fill: rgb(35, 31, 32);"/>
  <path class="cls-1" d="M 80.89 117.554 L 81.63 117.554 L 78.36 126.244 L 77.62 126.244 L 80.89 117.554 Z" style="fill: rgb(35, 31, 32);"/>
  <path class="cls-1" d="M 83.62 118.114 L 85.44 118.114 C 86.77 118.114 87.68 118.564 87.68 119.714 C 87.684 120.38 87.227 120.96 86.58 121.114 C 87.43 121.13 88.106 121.833 88.09 122.684 C 88.09 123.964 87.09 124.594 85.63 124.594 L 83.63 124.594 L 83.62 118.114 Z M 85.34 120.874 C 86.46 120.874 86.91 120.514 86.91 119.784 C 86.91 119.054 86.39 118.784 85.38 118.784 L 84.44 118.784 L 84.44 120.844 L 85.34 120.874 Z M 85.51 123.964 C 86.63 123.964 87.27 123.604 87.27 122.714 C 87.27 121.824 86.66 121.574 85.51 121.574 L 84.44 121.574 L 84.44 123.964 L 85.51 123.964 Z" style="fill: rgb(35, 31, 32);"/>
  <path class="cls-1" d="M 89.23 122.234 C 89.33 120.389 91.389 119.345 92.937 120.354 C 94.484 121.363 94.359 123.669 92.712 124.504 C 92.376 124.675 92.006 124.763 91.63 124.764 C 90.246 124.778 89.142 123.615 89.23 122.234 Z M 93.17 122.234 C 93.17 121.114 92.56 120.364 91.63 120.364 C 90.7 120.364 90.08 121.114 90.08 122.234 C 90.08 123.354 90.7 124.074 91.63 124.074 C 92.56 124.074 93.17 123.344 93.17 122.234 Z" style="fill: rgb(35, 31, 32);"/>
  <path class="cls-1" d="M 95.23 122.234 C 95.102 120.911 96.102 119.747 97.43 119.674 C 97.979 119.681 98.503 119.903 98.89 120.294 L 98.89 119.404 L 98.89 117.534 L 99.71 117.534 L 99.71 124.644 L 99.04 124.644 L 98.96 124.004 C 98.555 124.457 97.986 124.73 97.38 124.764 C 96.07 124.764 95.23 123.854 95.23 122.234 Z M 98.87 123.354 L 98.87 120.934 C 98.538 120.585 98.081 120.383 97.6 120.374 C 96.659 120.447 95.969 121.288 96.08 122.224 C 96.08 123.374 96.62 124.064 97.51 124.064 C 98.045 124.039 98.543 123.779 98.87 123.354 Z" style="fill: rgb(35, 31, 32);"/>
  <path class="cls-1" d="M 101.3 126.634 L 101.47 125.974 C 101.612 126.018 101.76 126.042 101.91 126.044 C 102.523 126.036 103.061 125.631 103.24 125.044 L 103.38 124.684 L 101.12 119.824 L 101.96 119.824 L 103.14 122.504 C 103.33 122.934 103.54 123.444 103.74 123.904 L 104.26 122.504 L 105.26 119.824 L 106.06 119.824 L 103.92 125.074 C 103.7 126.042 102.852 126.738 101.86 126.764 C 101.668 126.748 101.479 126.704 101.3 126.634 Z" style="fill: rgb(35, 31, 32);"/>
  <path class="cls-1" d="M 113.77 118.114 L 117.77 118.114 L 117.77 118.824 L 114.61 118.824 L 114.61 120.824 L 117.32 120.824 L 117.32 121.534 L 114.61 121.534 L 114.61 123.904 L 117.92 123.904 L 117.92 124.614 L 113.77 124.614 L 113.77 118.114 Z" style="fill: rgb(35, 31, 32);"/>
  <path class="cls-1" d="M 119.56 119.794 L 120.24 119.794 L 120.31 120.614 C 120.758 120.055 121.424 119.713 122.14 119.674 C 123.28 119.674 123.81 120.354 123.81 121.674 L 123.81 124.674 L 122.98 124.674 L 122.98 121.774 C 122.98 120.854 122.67 120.424 121.88 120.424 C 121.3 120.424 120.88 120.714 120.35 121.294 L 120.35 124.674 L 119.52 124.674 L 119.56 119.794 Z" style="fill: rgb(35, 31, 32);"/>
  <path class="cls-1" d="M 126.69 122.764 L 126.69 120.464 L 125.31 120.464 L 125.31 119.844 L 126.72 119.844 L 126.83 118.284 L 127.52 118.284 L 127.52 119.844 L 129.89 119.844 L 129.89 120.514 L 127.52 120.514 L 127.52 122.824 C 127.52 123.694 127.81 124.134 128.75 124.134 C 129.143 124.132 129.533 124.058 129.9 123.914 L 130.08 124.524 C 129.598 124.712 129.086 124.81 128.57 124.814 C 127.15 124.764 126.69 123.954 126.69 122.764 Z" style="fill: rgb(35, 31, 32);"/>
  <path class="cls-1" d="M 132.08 119.794 L 132.77 119.794 L 132.85 120.944 C 133.301 120.17 134.124 119.688 135.02 119.674 C 135.365 119.653 135.709 119.722 136.02 119.874 L 135.83 120.584 C 135.546 120.475 135.244 120.421 134.94 120.424 C 134.06 120.463 133.282 121.004 132.94 121.814 L 132.94 124.644 L 132.11 124.644 L 132.08 119.794 Z" style="fill: rgb(35, 31, 32);"/>
  <path class="cls-1" d="M 137.44 123.394 C 137.44 122.304 138.44 121.774 140.97 121.574 C 141.019 120.852 140.398 120.264 139.68 120.354 C 139.071 120.391 138.484 120.591 137.98 120.934 L 137.65 120.374 C 138.296 119.948 139.046 119.706 139.82 119.674 C 140.976 119.536 141.957 120.517 141.82 121.674 L 141.82 124.674 L 141.14 124.674 L 141.06 124.014 C 140.524 124.473 139.854 124.747 139.15 124.794 C 138.18 124.764 137.44 124.254 137.44 123.394 Z M 140.97 123.394 L 140.97 122.114 C 138.89 122.274 138.26 122.684 138.26 123.324 C 138.26 123.964 138.76 124.084 139.32 124.084 C 139.932 124.044 140.512 123.793 140.96 123.374 L 140.97 123.394 Z" style="fill: rgb(35, 31, 32);"/>
  <path class="cls-1" d="M 145.78 120.464 L 143.53 120.464 L 143.53 119.794 L 146.61 119.794 L 146.61 124.644 L 145.78 124.644 L 145.78 120.464 Z M 145.44 118.114 C 145.424 117.606 145.964 117.272 146.412 117.513 C 146.859 117.753 146.878 118.388 146.446 118.655 C 146.342 118.72 146.222 118.754 146.1 118.754 C 145.736 118.771 145.433 118.478 145.44 118.114 Z" style="fill: rgb(35, 31, 32);"/>
  <path class="cls-1" d="M 149.56 119.794 L 150.24 119.794 L 150.31 120.614 C 150.758 120.055 151.424 119.713 152.14 119.674 C 153.28 119.674 153.81 120.354 153.81 121.674 L 153.81 124.674 L 152.98 124.674 L 152.98 121.774 C 152.98 120.854 152.67 120.424 151.88 120.424 C 151.3 120.424 150.88 120.714 150.35 121.294 L 150.35 124.674 L 149.52 124.674 L 149.56 119.794 Z" style="fill: rgb(35, 31, 32);"/>
  <path class="cls-1" d="M 155.21 119.794 L 155.87 119.794 L 155.94 120.434 C 156.122 119.979 156.56 119.679 157.05 119.674 C 157.53 119.674 157.83 119.954 157.97 120.514 C 158.25 119.994 158.55 119.674 159.1 119.674 C 159.65 119.674 160.18 120.204 160.18 121.174 L 160.18 124.644 L 159.36 124.644 L 159.36 121.234 C 159.36 120.674 159.21 120.384 158.85 120.384 C 158.49 120.384 158.33 120.634 158.07 121.134 L 158.07 124.644 L 157.31 124.644 L 157.31 121.234 C 157.31 120.674 157.17 120.384 156.81 120.384 C 156.45 120.384 156.25 120.634 156.01 121.134 L 156.01 124.644 L 155.19 124.644 L 155.21 119.794 Z" style="fill: rgb(35, 31, 32);"/>
  <path class="cls-1" d="M 161.31 122.214 C 161.252 120.812 162.386 119.65 163.79 119.674 C 165.07 119.595 166.119 120.677 166 121.954 C 166.012 122.12 166.012 122.288 166 122.454 L 161.9 122.454 L 161.9 121.814 L 165.44 121.814 L 165.24 122.044 C 165.24 120.894 164.67 120.324 163.78 120.324 C 162.772 120.336 161.993 121.212 162.1 122.214 C 162.016 123.295 162.919 124.193 164 124.104 C 164.525 124.101 165.037 123.941 165.47 123.644 L 165.77 124.184 C 165.219 124.562 164.567 124.764 163.9 124.764 C 162.452 124.848 161.248 123.663 161.31 122.214 Z" style="fill: rgb(35, 31, 32);"/>
  <path class="cls-1" d="M 167.56 119.794 L 168.24 119.794 L 168.31 120.614 C 168.758 120.055 169.424 119.713 170.14 119.674 C 171.28 119.674 171.81 120.354 171.81 121.674 L 171.81 124.674 L 170.98 124.674 L 170.98 121.774 C 170.98 120.854 170.67 120.424 169.88 120.424 C 169.3 120.424 168.88 120.714 168.35 121.294 L 168.35 124.674 L 167.52 124.674 L 167.56 119.794 Z" style="fill: rgb(35, 31, 32);"/>
  <path class="cls-1" d="M 174.69 122.764 L 174.69 120.464 L 173.31 120.464 L 173.31 119.844 L 174.72 119.844 L 174.83 118.284 L 175.52 118.284 L 175.52 119.844 L 177.89 119.844 L 177.89 120.514 L 175.52 120.514 L 175.52 122.824 C 175.52 123.694 175.81 124.134 176.75 124.134 C 177.143 124.132 177.533 124.058 177.9 123.914 L 178.08 124.524 C 177.598 124.712 177.086 124.81 176.57 124.814 C 175.15 124.764 174.69 123.954 174.69 122.764 Z" style="fill: rgb(35, 31, 32);"/>
  <path class="cls-1" d="M 187.15 118.114 L 188.15 118.114 L 190.35 124.664 L 189.44 124.664 L 188.32 121.014 C 188.09 120.284 187.87 119.564 187.67 118.804 C 187.46 119.564 187.25 120.284 187.02 121.014 L 185.87 124.664 L 185.01 124.664 L 187.15 118.114 Z M 186.15 122.004 L 189.15 122.004 L 189.15 122.684 L 186.15 122.684 L 186.15 122.004 Z" style="fill: rgb(35, 31, 32);"/>
  <path class="cls-1" d="M 192.69 122.764 L 192.69 120.464 L 191.31 120.464 L 191.31 119.844 L 192.72 119.844 L 192.83 118.284 L 193.52 118.284 L 193.52 119.844 L 195.89 119.844 L 195.89 120.514 L 193.52 120.514 L 193.52 122.824 C 193.52 123.694 193.81 124.134 194.74 124.134 C 195.136 124.133 195.53 124.059 195.9 123.914 L 196.08 124.524 C 195.595 124.713 195.08 124.811 194.56 124.814 C 193.15 124.764 192.69 123.954 192.69 122.764 Z" style="fill: rgb(35, 31, 32);"/>
  <path class="cls-1" d="M 198.69 122.764 L 198.69 120.464 L 197.31 120.464 L 197.31 119.844 L 198.72 119.844 L 198.83 118.284 L 199.52 118.284 L 199.52 119.844 L 201.89 119.844 L 201.89 120.514 L 199.52 120.514 L 199.52 122.824 C 199.52 123.694 199.81 124.134 200.74 124.134 C 201.136 124.133 201.53 124.059 201.9 123.914 L 202.08 124.524 C 201.595 124.713 201.08 124.811 200.56 124.814 C 199.15 124.764 198.69 123.954 198.69 122.764 Z" style="fill: rgb(35, 31, 32);"/>
  <path class="cls-1" d="M 203.31 122.214 C 203.252 120.812 204.386 119.65 205.79 119.674 C 207.07 119.595 208.119 120.677 208 121.954 C 208.012 122.12 208.012 122.288 208 122.454 L 203.9 122.454 L 203.9 121.814 L 207.44 121.814 L 207.24 122.044 C 207.24 120.894 206.66 120.324 205.78 120.324 C 204.772 120.336 203.993 121.212 204.1 122.214 C 204.009 123.293 204.91 124.194 205.99 124.104 C 206.518 124.102 207.033 123.941 207.47 123.644 L 207.77 124.184 C 207.219 124.561 206.567 124.763 205.9 124.764 C 204.452 124.848 203.248 123.663 203.31 122.214 Z" style="fill: rgb(35, 31, 32);"/>
  <path class="cls-1" d="M 209.56 119.794 L 210.24 119.794 L 210.31 120.614 C 210.758 120.055 211.424 119.713 212.14 119.674 C 213.28 119.674 213.81 120.354 213.81 121.674 L 213.81 124.674 L 212.98 124.674 L 212.98 121.774 C 212.98 120.854 212.66 120.424 211.88 120.424 C 211.3 120.424 210.88 120.714 210.35 121.294 L 210.35 124.674 L 209.52 124.674 L 209.56 119.794 Z" style="fill: rgb(35, 31, 32);"/>
  <path class="cls-1" d="M 216.69 122.764 L 216.69 120.464 L 215.31 120.464 L 215.31 119.844 L 216.72 119.844 L 216.83 118.284 L 217.52 118.284 L 217.52 119.844 L 219.89 119.844 L 219.89 120.514 L 217.52 120.514 L 217.52 122.824 C 217.52 123.694 217.81 124.134 218.74 124.134 C 219.136 124.133 219.53 124.059 219.9 123.914 L 220.08 124.524 C 219.595 124.713 219.08 124.811 218.56 124.814 C 217.15 124.764 216.69 123.954 216.69 122.764 Z" style="fill: rgb(35, 31, 32);"/>
  <path class="cls-1" d="M 223.78 120.464 L 221.53 120.464 L 221.53 119.794 L 224.6 119.794 L 224.6 124.644 L 223.78 124.644 L 223.78 120.464 Z M 223.44 118.114 C 223.427 117.752 223.727 117.456 224.09 117.474 C 224.582 117.474 224.89 118.007 224.644 118.434 C 224.529 118.632 224.318 118.754 224.09 118.754 C 223.727 118.772 223.427 118.476 223.44 118.114 Z" style="fill: rgb(35, 31, 32);"/>
  <path class="cls-1" d="M 227.23 122.234 C 227.33 120.389 229.389 119.345 230.937 120.354 C 232.484 121.363 232.359 123.669 230.712 124.504 C 230.376 124.675 230.006 124.763 229.63 124.764 C 228.246 124.778 227.142 123.615 227.23 122.234 Z M 231.23 122.234 C 231.23 121.114 230.61 120.364 229.68 120.364 C 228.75 120.364 228.13 121.114 228.13 122.234 C 228.13 123.354 228.75 124.074 229.68 124.074 C 230.61 124.074 231.18 123.344 231.18 122.234 L 231.23 122.234 Z" style="fill: rgb(35, 31, 32);"/>
  <path class="cls-1" d="M 233.56 119.794 L 234.24 119.794 L 234.31 120.614 C 234.758 120.055 235.424 119.713 236.14 119.674 C 237.28 119.674 237.81 120.354 237.81 121.674 L 237.81 124.674 L 236.98 124.674 L 236.98 121.774 C 236.98 120.854 236.67 120.424 235.88 120.424 C 235.3 120.424 234.88 120.714 234.35 121.294 L 234.35 124.674 L 233.52 124.674 L 233.56 119.794 Z" style="fill: rgb(35, 31, 32);"/>
  <path class="cls-1" d="M 245.05 122.954 C 245.05 121.064 247.88 120.694 247.88 119.284 C 247.88 118.904 247.72 118.564 247.28 118.564 C 246.84 118.564 246.55 118.974 246.55 119.564 C 246.55 120.794 247.86 122.424 249.07 123.354 C 249.476 123.689 249.94 123.946 250.44 124.114 L 250.21 124.804 C 249.629 124.606 249.092 124.297 248.63 123.894 C 247.23 122.784 245.88 120.894 245.88 119.574 C 245.816 118.735 246.478 118.017 247.32 118.014 C 248.055 117.962 248.663 118.579 248.6 119.314 C 248.6 120.944 245.9 121.474 245.9 122.944 C 245.893 123.633 246.471 124.185 247.16 124.144 C 247.705 124.103 248.206 123.826 248.53 123.384 C 249.057 122.734 249.427 121.971 249.61 121.154 L 250.37 121.154 C 250.135 122.105 249.706 122.997 249.11 123.774 C 248.616 124.404 247.86 124.773 247.06 124.774 C 245.979 124.894 245.037 124.041 245.05 122.954 Z" style="fill: rgb(35, 31, 32);"/>
  <path class="cls-1" d="M 259.21 118.804 L 257.04 118.804 L 257.04 118.114 L 262.21 118.114 L 262.21 118.824 L 260.05 118.824 L 260.05 124.664 L 259.21 124.664 L 259.21 118.804 Z" style="fill: rgb(35, 31, 32);"/>
  <path class="cls-1" d="M 265.78 120.464 L 263.53 120.464 L 263.53 119.794 L 266.6 119.794 L 266.6 124.644 L 265.78 124.644 L 265.78 120.464 Z M 265.44 118.114 C 265.424 117.606 265.964 117.272 266.412 117.513 C 266.859 117.753 266.878 118.388 266.446 118.655 C 266.342 118.72 266.222 118.754 266.1 118.754 C 265.736 118.771 265.433 118.478 265.44 118.114 Z" style="fill: rgb(35, 31, 32);"/>
  <path class="cls-1" d="M 269.21 119.794 L 269.87 119.794 L 269.94 120.434 C 270.122 119.979 270.56 119.679 271.05 119.674 C 271.53 119.674 271.83 119.954 271.97 120.514 C 272.25 119.994 272.54 119.674 273.1 119.674 C 273.66 119.674 274.18 120.204 274.18 121.174 L 274.18 124.644 L 273.44 124.644 L 273.44 121.234 C 273.44 120.674 273.28 120.384 272.91 120.384 C 272.54 120.384 272.4 120.634 272.14 121.134 L 272.14 124.644 L 271.38 124.644 L 271.38 121.234 C 271.38 120.674 271.24 120.384 270.88 120.384 C 270.52 120.384 270.32 120.634 270.08 121.134 L 270.08 124.644 L 269.26 124.644 L 269.21 119.794 Z" style="fill: rgb(35, 31, 32);"/>
  <path class="cls-1" d="M 277.78 120.464 L 275.53 120.464 L 275.53 119.794 L 278.6 119.794 L 278.6 124.644 L 277.78 124.644 L 277.78 120.464 Z M 277.44 118.114 C 277.424 117.606 277.964 117.272 278.412 117.513 C 278.859 117.753 278.878 118.388 278.446 118.655 C 278.342 118.72 278.222 118.754 278.1 118.754 C 277.736 118.771 277.433 118.478 277.44 118.114 Z" style="fill: rgb(35, 31, 32);"/>
  <path class="cls-1" d="M 281.56 119.794 L 282.24 119.794 L 282.31 120.614 C 282.758 120.055 283.424 119.713 284.14 119.674 C 285.28 119.674 285.81 120.354 285.81 121.674 L 285.81 124.674 L 284.98 124.674 L 284.98 121.774 C 284.98 120.854 284.67 120.424 283.88 120.424 C 283.3 120.424 282.88 120.714 282.35 121.294 L 282.35 124.674 L 281.52 124.674 L 281.56 119.794 Z" style="fill: rgb(35, 31, 32);"/>
  <path class="cls-1" d="M 287.35 125.534 C 287.405 125.057 287.71 124.646 288.15 124.454 C 287.845 124.308 287.651 124.001 287.65 123.664 C 287.685 123.285 287.901 122.946 288.23 122.754 C 287.841 122.453 287.618 121.985 287.63 121.494 C 287.65 120.474 288.522 119.679 289.54 119.754 C 289.785 119.749 290.029 119.79 290.26 119.874 L 292.26 119.874 L 292.26 120.544 L 291.01 120.544 C 291.265 120.814 291.408 121.172 291.41 121.544 C 291.341 122.501 290.494 123.212 289.54 123.114 C 289.257 123.11 288.978 123.049 288.72 122.934 C 288.501 123.038 288.356 123.252 288.34 123.494 C 288.34 123.864 288.71 124.044 289.34 124.044 L 290.44 124.044 C 291.69 124.044 292.29 124.364 292.29 125.184 C 292.29 126.004 291.29 126.884 289.6 126.884 C 288.17 126.884 287.35 126.394 287.35 125.534 Z M 291.48 125.314 C 291.48 124.854 291.1 124.724 290.37 124.724 L 289.44 124.724 C 289.19 124.731 288.941 124.704 288.7 124.644 C 288.24 124.894 288.08 125.174 288.08 125.454 C 288.08 125.964 288.63 126.284 289.67 126.284 C 290.71 126.284 291.44 125.814 291.44 125.314 L 291.48 125.314 Z M 290.65 121.414 C 290.679 120.785 290.169 120.262 289.54 120.274 C 288.658 120.356 288.196 121.362 288.709 122.084 C 288.902 122.358 289.206 122.533 289.54 122.564 C 290.174 122.577 290.685 122.047 290.65 121.414 Z" style="fill: rgb(35, 31, 32);"/>
  <path class="cls-1" d="M 293.61 125.694 L 295.72 125.694 L 295.72 118.044 L 293.61 118.044 L 293.61 117.574 L 296.38 117.574 L 296.38 126.164 L 293.61 126.164 L 293.61 125.694 Z" style="fill: rgb(35, 31, 32);"/>
  <path class="cls-1" d="M 114.35 17.964 L 165.05 17.964 L 165.05 26.824 L 124.84 26.824 L 124.84 52.424 L 158.84 52.424 L 158.84 61.294 L 124.84 61.294 L 124.84 91.004 L 166.3 91.004 L 166.3 99.874 L 114.35 99.874 L 114.35 17.964 Z" style="fill: rgb(35, 31, 32);"/>
  <path class="cls-1" d="M 321.9 117.56 L 324.67 117.56 L 324.67 118.03 L 322.56 118.03 L 322.56 125.68 L 324.67 125.68 L 324.67 126.15 L 321.9 126.15 L 321.9 117.56 Z" style="fill: rgb(35, 31, 32);"/>
  <path class="cls-1" d="M 326.11 122.1 C 326.11 119.55 327.4 118.25 329.05 118.25 C 330.43 118.25 331.05 119.25 331.05 120.63 L 331.05 123.63 L 330.55 123.63 L 330.48 123.06 C 330.158 123.468 329.678 123.719 329.16 123.75 C 328.433 123.774 327.84 123.176 327.87 122.45 C 327.87 121.45 328.81 120.95 330.51 120.74 L 330.51 120.6 C 330.51 119.6 330.07 118.84 329.02 118.84 C 327.97 118.84 326.75 119.96 326.75 122.17 C 326.75 124.38 327.75 125.52 329.06 125.52 C 329.567 125.537 330.066 125.378 330.47 125.07 L 330.75 125.52 C 330.253 125.882 329.654 126.075 329.04 126.07 C 327.45 126.1 326.11 124.7 326.11 122.1 Z M 330.43 122.5 L 330.43 121.24 C 329.06 121.44 328.52 121.78 328.52 122.39 C 328.497 122.832 328.88 123.187 329.32 123.13 C 329.756 123.096 330.158 122.883 330.43 122.54 L 330.43 122.5 Z" style="fill: rgb(35, 31, 32);"/>
  <path class="cls-1" d="M 338.34 118.1 L 339.34 118.1 L 340.26 120.9 L 340.58 121.96 L 340.89 120.9 L 341.9 118.1 L 342.9 118.1 L 342.9 124.65 L 342.1 124.65 L 342.1 121.38 C 342.1 120.74 342.2 119.62 342.24 119.06 L 341.87 120.34 L 340.9 122.9 L 340.3 122.9 L 339.38 120.32 L 339 119.04 C 339.06 119.6 339.14 120.72 339.14 121.36 L 339.14 124.63 L 338.36 124.63 L 338.34 118.1 Z" style="fill: rgb(35, 31, 32);"/>
  <path class="cls-1" d="M 344.42 122.22 C 344.392 120.735 345.648 119.548 347.13 119.66 C 347.791 119.65 348.428 119.906 348.9 120.37 L 348.49 120.9 C 348.13 120.558 347.656 120.362 347.16 120.35 C 346.097 120.283 345.214 121.157 345.27 122.22 C 345.22 123.268 346.092 124.127 347.14 124.06 C 347.696 124.048 348.229 123.835 348.64 123.46 L 349.01 123.99 C 348.482 124.473 347.795 124.744 347.08 124.75 C 345.613 124.877 344.366 123.691 344.42 122.22 Z" style="fill: rgb(35, 31, 32);"/>
  <path class="cls-1" d="M 350.34 118.1 L 351.34 118.1 L 352.26 120.9 L 352.58 121.96 L 352.89 120.9 L 353.9 118.1 L 354.9 118.1 L 354.9 124.65 L 354.1 124.65 L 354.1 121.38 C 354.1 120.74 354.2 119.62 354.24 119.06 L 353.87 120.34 L 352.9 122.9 L 352.3 122.9 L 351.38 120.32 L 351 119.04 C 351.06 119.6 351.14 120.72 351.14 121.36 L 351.14 124.63 L 350.36 124.63 L 350.34 118.1 Z" style="fill: rgb(35, 31, 32);"/>
  <path class="cls-1" d="M 356.42 123.38 C 356.42 122.29 357.42 121.76 359.95 121.56 C 359.999 120.838 359.378 120.25 358.66 120.34 C 358.051 120.377 357.464 120.577 356.96 120.92 L 356.63 120.36 C 357.276 119.934 358.026 119.692 358.8 119.66 C 359.953 119.531 360.929 120.506 360.8 121.66 L 360.8 124.66 L 360.11 124.66 L 360.04 124 C 359.504 124.459 358.834 124.733 358.13 124.78 C 357.17 124.75 356.42 124.24 356.42 123.38 Z M 359.95 123.38 L 359.95 122.1 C 357.87 122.26 357.24 122.67 357.24 123.31 C 357.24 123.95 357.74 124.07 358.3 124.07 C 358.915 124.033 359.499 123.782 359.95 123.36 L 359.95 123.38 Z" style="fill: rgb(35, 31, 32);"/>
  <path class="cls-1" d="M 362.33 123.99 L 362.71 123.44 C 363.322 123.884 364.063 124.116 364.82 124.1 C 365.64 124.1 366.04 123.76 366.04 123.36 C 366.04 122.96 365.85 122.73 364.53 122.46 C 363.21 122.19 362.63 121.77 362.63 121.04 C 362.63 120.31 363.32 119.66 364.63 119.66 C 365.342 119.667 366.038 119.882 366.63 120.28 L 366.23 120.81 C 365.751 120.479 365.182 120.301 364.6 120.3 C 363.78 120.3 363.48 120.63 363.48 121 C 363.48 121.37 363.9 121.6 364.9 121.81 C 366.51 122.16 366.9 122.56 366.9 123.31 C 366.9 124.06 366.13 124.75 364.74 124.75 C 363.878 124.746 363.038 124.481 362.33 123.99 Z" style="fill: rgb(35, 31, 32);"/>
  <path class="cls-1" d="M 369.68 122.75 L 369.68 120.45 L 368.3 120.45 L 368.3 119.83 L 369.71 119.83 L 369.82 118.27 L 370.51 118.27 L 370.51 119.83 L 372.9 119.83 L 372.9 120.5 L 370.52 120.5 L 370.52 122.81 C 370.52 123.68 370.81 124.12 371.75 124.12 C 372.146 124.119 372.54 124.045 372.91 123.9 L 373.09 124.51 C 372.605 124.699 372.09 124.797 371.57 124.8 C 370.14 124.75 369.68 123.94 369.68 122.75 Z" style="fill: rgb(35, 31, 32);"/>
  <path class="cls-1" d="M 374.3 122.2 C 374.242 120.798 375.376 119.636 376.78 119.66 C 378.064 119.574 379.119 120.659 379 121.94 C 379.012 122.106 379.012 122.274 379 122.44 L 374.9 122.44 L 374.9 121.8 L 378.52 121.8 L 378.31 122.03 C 378.31 120.88 377.74 120.31 376.85 120.31 C 375.842 120.322 375.063 121.198 375.17 122.2 C 375.086 123.281 375.989 124.179 377.07 124.09 C 377.598 124.088 378.113 123.927 378.55 123.63 L 378.85 124.17 C 378.296 124.548 377.64 124.75 376.97 124.75 C 375.491 124.885 374.233 123.684 374.3 122.2 Z" style="fill: rgb(35, 31, 32);"/>
  <path class="cls-1" d="M 381.07 119.78 L 381.76 119.78 L 381.84 120.93 C 382.291 120.156 383.114 119.674 384.01 119.66 C 384.355 119.639 384.699 119.708 385.01 119.86 L 384.82 120.57 C 384.532 120.46 384.227 120.406 383.92 120.41 C 383.04 120.449 382.262 120.99 381.92 121.8 L 381.92 124.63 L 381.09 124.63 L 381.07 119.78 Z" style="fill: rgb(35, 31, 32);"/>
  <path class="cls-1" d="M 392.41 122.16 L 392.41 118.1 L 393.26 118.1 L 393.26 122.2 C 393.26 123.55 393.85 124.03 394.63 124.03 C 395.41 124.03 396.02 123.55 396.02 122.2 L 396.02 118.1 L 396.83 118.1 L 396.83 122.18 C 396.83 124.05 395.91 124.77 394.63 124.77 C 393.35 124.77 392.41 124.03 392.41 122.16 Z" style="fill: rgb(35, 31, 32);"/>
  <path class="cls-1" d="M 398.55 119.78 L 399.23 119.78 L 399.3 120.6 C 399.748 120.041 400.414 119.699 401.13 119.66 C 402.28 119.66 402.81 120.34 402.81 121.66 L 402.81 124.66 L 401.98 124.66 L 401.98 121.76 C 401.98 120.84 401.66 120.41 400.87 120.41 C 400.29 120.41 399.87 120.7 399.34 121.28 L 399.34 124.66 L 398.51 124.66 L 398.55 119.78 Z" style="fill: rgb(35, 31, 32);"/>
  <path class="cls-1" d="M 406.77 120.45 L 404.52 120.45 L 404.52 119.78 L 407.6 119.78 L 407.6 124.63 L 406.77 124.63 L 406.77 120.45 Z M 406.44 118.12 C 406.424 117.612 406.964 117.278 407.412 117.519 C 407.859 117.759 407.878 118.394 407.446 118.661 C 407.342 118.726 407.222 118.76 407.1 118.76 C 406.728 118.778 406.421 118.472 406.44 118.1 L 406.44 118.12 Z" style="fill: rgb(35, 31, 32);"/>
  <path class="cls-1" d="M 410.12 119.78 L 410.97 119.78 L 412.09 122.53 C 412.28 123.02 412.46 123.53 412.63 123.96 C 412.8 123.5 412.96 123.02 413.16 122.53 L 414.28 119.78 L 415.08 119.78 L 413.08 124.63 L 412.15 124.63 L 410.12 119.78 Z" style="fill: rgb(35, 31, 32);"/>
  <path class="cls-1" d="M 416.3 122.2 C 416.242 120.798 417.376 119.636 418.78 119.66 C 420.064 119.574 421.119 120.659 421 121.94 C 421.012 122.106 421.012 122.274 421 122.44 L 416.9 122.44 L 416.9 121.8 L 420.52 121.8 L 420.31 122.03 C 420.31 120.88 419.74 120.31 418.85 120.31 C 417.842 120.322 417.063 121.198 417.17 122.2 C 417.086 123.281 417.989 124.179 419.07 124.09 C 419.598 124.088 420.113 123.927 420.55 123.63 L 420.85 124.17 C 420.296 124.548 419.64 124.75 418.97 124.75 C 417.491 124.885 416.233 123.684 416.3 122.2 Z" style="fill: rgb(35, 31, 32);"/>
  <path class="cls-1" d="M 423.07 119.78 L 423.76 119.78 L 423.84 120.93 C 424.291 120.156 425.114 119.674 426.01 119.66 C 426.355 119.639 426.699 119.708 427.01 119.86 L 426.82 120.57 C 426.532 120.46 426.227 120.406 425.92 120.41 C 425.04 120.449 424.262 120.99 423.92 121.8 L 423.92 124.63 L 423.09 124.63 L 423.07 119.78 Z" style="fill: rgb(35, 31, 32);"/>
  <path class="cls-1" d="M 428.33 123.99 L 428.71 123.44 C 429.322 123.884 430.063 124.116 430.82 124.1 C 431.64 124.1 432.04 123.76 432.04 123.36 C 432.04 122.96 431.85 122.73 430.53 122.46 C 429.21 122.19 428.63 121.77 428.63 121.04 C 428.63 120.31 429.32 119.66 430.63 119.66 C 431.342 119.667 432.038 119.882 432.63 120.28 L 432.23 120.81 C 431.751 120.479 431.182 120.301 430.6 120.3 C 429.78 120.3 429.48 120.63 429.48 121 C 429.48 121.37 429.9 121.6 430.9 121.81 C 432.51 122.16 432.9 122.56 432.9 123.31 C 432.9 124.06 432.13 124.75 430.74 124.75 C 429.878 124.746 429.038 124.481 428.33 123.99 Z" style="fill: rgb(35, 31, 32);"/>
  <path class="cls-1" d="M 436.77 120.45 L 434.52 120.45 L 434.52 119.78 L 437.6 119.78 L 437.6 124.63 L 436.77 124.63 L 436.77 120.45 Z M 436.44 118.12 C 436.424 117.612 436.964 117.278 437.412 117.519 C 437.859 117.759 437.878 118.394 437.446 118.661 C 437.342 118.726 437.222 118.76 437.1 118.76 C 436.728 118.778 436.421 118.472 436.44 118.1 L 436.44 118.12 Z" style="fill: rgb(35, 31, 32);"/>
  <path class="cls-1" d="M 441.68 122.75 L 441.68 120.45 L 440.3 120.45 L 440.3 119.83 L 441.71 119.83 L 441.82 118.27 L 442.51 118.27 L 442.51 119.83 L 444.9 119.83 L 444.9 120.5 L 442.52 120.5 L 442.52 122.81 C 442.52 123.68 442.81 124.12 443.75 124.12 C 444.146 124.119 444.54 124.045 444.91 123.9 L 445.09 124.51 C 444.605 124.699 444.09 124.797 443.57 124.8 C 442.14 124.75 441.68 123.94 441.68 122.75 Z" style="fill: rgb(35, 31, 32);"/>
  <path class="cls-1" d="M 446.29 126.62 L 446.46 125.96 C 446.602 126.004 446.75 126.028 446.9 126.03 C 447.513 126.022 448.051 125.617 448.23 125.03 L 448.37 124.67 L 446.11 119.81 L 446.95 119.81 L 448.13 122.49 C 448.32 122.92 448.53 123.43 448.73 123.89 L 449.25 122.49 L 450.3 119.81 L 451.1 119.81 L 448.95 125.06 C 448.73 126.028 447.882 126.724 446.89 126.75 C 446.684 126.738 446.482 126.694 446.29 126.62 Z" style="fill: rgb(35, 31, 32);"/>
  <path class="cls-1" d="M 452.6 125.68 L 454.71 125.68 L 454.71 118.03 L 452.6 118.03 L 452.6 117.56 L 455.37 117.56 L 455.37 126.15 L 452.6 126.15 L 452.6 125.68 Z" style="fill: rgb(35, 31, 32);"/>
</svg>